<?xml version="1.0" encoding="iso-8859-1"?>
<!-- Generator: Adobe Illustrator 19.0.0, SVG Export Plug-In . SVG Version: 6.00 Build 0)  -->
<svg version="1.1" id="Layer_1" xmlns="http://www.w3.org/2000/svg" xmlns:xlink="http://www.w3.org/1999/xlink" x="0px" y="0px"
	 viewBox="0 0 511.98 511.98" style="enable-background:new 0 0 511.98 511.98;" xml:space="preserve">
<ellipse style="fill:#929292;" cx="255.988" cy="489.085" rx="37.415" ry="22.895"/>
<path style="fill:#E3BB4D;" d="M394.278,138.286C394.278,61.911,332.363,0,255.988,0S117.702,61.911,117.702,138.286
	c0,31.58,10.607,60.671,28.421,83.951h-0.024c23.22,31.214,61.983,84.477,61.983,145.196h47.905h47.909
	c0-60.719,38.763-113.978,61.983-145.196h-0.028C383.671,198.957,394.278,169.865,394.278,138.286z"/>
<g>
	<circle style="fill:#FFFFFF;" cx="198.56" cy="93.619" r="33.598"/>
	<circle style="fill:#FFFFFF;" cx="182.306" cy="152.119" r="12.509"/>
</g>
<path style="fill:#696969;" d="M318.714,476.805c0,7.778-6.305,14.078-14.078,14.078H206.1c-7.778,0-14.078-6.301-14.078-14.078
	V374.613c0-7.778,6.305-14.078,14.078-14.078h98.531c7.778,0,14.078,6.301,14.078,14.078v102.191H318.714z"/>
<g>
	<path style="fill:#929292;" d="M327.8,382.026c0,5.442-4.41,10.342-9.852,10.952l-125.159,13.922
		c-5.438,0.602-9.852-3.315-9.852-8.757l0,0c0-5.442,4.41-10.342,9.852-10.952l125.159-13.922
		C323.385,372.667,327.8,376.588,327.8,382.026L327.8,382.026z"/>
	<path style="fill:#929292;" d="M327.8,417.65c0,5.438-4.41,10.342-9.852,10.948L192.789,442.52
		c-5.438,0.602-9.852-3.315-9.852-8.757l0,0c0-5.438,4.41-10.342,9.852-10.948l125.159-13.922
		C323.385,408.288,327.8,412.213,327.8,417.65L327.8,417.65z"/>
	<path style="fill:#929292;" d="M327.8,453.271c0,5.438-4.41,10.342-9.852,10.948l-125.159,13.922
		c-5.438,0.606-9.852-3.315-9.852-8.757l0,0c0-5.438,4.41-10.342,9.852-10.948l125.159-13.922
		C323.385,443.913,327.8,447.833,327.8,453.271L327.8,453.271z"/>
</g>
<g>
</g>
<g>
</g>
<g>
</g>
<g>
</g>
<g>
</g>
<g>
</g>
<g>
</g>
<g>
</g>
<g>
</g>
<g>
</g>
<g>
</g>
<g>
</g>
<g>
</g>
<g>
</g>
<g>
</g>
</svg>
