<?xml version="1.0" encoding="iso-8859-1"?>
<!-- Generator: Adobe Illustrator 19.0.0, SVG Export Plug-In . SVG Version: 6.00 Build 0)  -->
<svg version="1.1" id="Layer_1" xmlns="http://www.w3.org/2000/svg" xmlns:xlink="http://www.w3.org/1999/xlink" x="0px" y="0px"
	 viewBox="0 0 512 512" style="enable-background:new 0 0 512 512;" xml:space="preserve">
<path style="fill:#2969B0;" d="M291.701,62.693H119.38c-54.871,0-99.352,44.481-99.352,99.352v25.948
	c0,54.871,44.481,99.352,99.352,99.352h172.321l41.796-18.286V80.978L291.701,62.693z"/>
<g>
	<rect x="333.5" y="101.877" style="fill:#EBEBEB;" width="41.796" height="146.286"/>
	<polygon style="fill:#EBEBEB;" points="417.089,227.264 375.293,248.162 375.293,101.877 417.089,122.774 	"/>
</g>
<rect x="417.092" y="148.897" style="fill:#FFAC3D;" width="62.694" height="52.245"/>
<rect x="125.733" y="287.346" style="fill:#A8A8A8;" width="161.959" height="52.245"/>
<path style="fill:#EBEBEB;" d="M314.601,339.591H98.83c-6.78,0-12.278,5.497-12.278,12.278v27.69c0,6.78,5.497,12.278,12.278,12.278
	h215.771c6.78,0,12.278-5.497,12.278-12.278v-27.69C326.879,345.088,321.382,339.591,314.601,339.591z"/>
<rect x="10.449" y="391.836" style="fill:#BFDEFF;" width="491.102" height="57.469"/>
<g>
	<path style="fill:#231F20;" d="M132.528,206.366H245.29c5.771,0,10.449-4.679,10.449-10.449s-4.678-10.449-10.449-10.449H132.528
		c-5.771,0-10.449,4.679-10.449,10.449S126.758,206.366,132.528,206.366z"/>
	<path style="fill:#231F20;" d="M278.813,185.468h-0.218c-5.771,0-10.449,4.679-10.449,10.449s4.678,10.449,10.449,10.449h0.218
		c5.771,0,10.449-4.679,10.449-10.449S284.584,185.468,278.813,185.468z"/>
	<path style="fill:#231F20;" d="M278.813,227.264H132.528c-5.771,0-10.449,4.679-10.449,10.449s4.678,10.449,10.449,10.449h146.286
		c5.771,0,10.449-4.679,10.449-10.449S284.584,227.264,278.813,227.264z"/>
	<path style="fill:#231F20;" d="M278.813,143.672H132.528c-5.771,0-10.449,4.679-10.449,10.449s4.678,10.449,10.449,10.449h146.286
		c5.771,0,10.449-4.679,10.449-10.449S284.584,143.672,278.813,143.672z"/>
	<path style="fill:#231F20;" d="M132.18,122.774h0.348c5.771,0,10.449-4.679,10.449-10.449s-4.678-10.449-10.449-10.449h-0.348
		c-5.771,0-10.449,4.679-10.449,10.449S126.409,122.774,132.18,122.774z"/>
	<path style="fill:#231F20;" d="M164.571,122.774h114.242c5.771,0,10.449-4.679,10.449-10.449s-4.678-10.449-10.449-10.449H164.571
		c-5.771,0-10.449,4.679-10.449,10.449S158.8,122.774,164.571,122.774z"/>
	<path style="fill:#231F20;" d="M501.551,381.387H337.328v-29.518c0-12.531-10.195-22.727-22.727-22.727h-16.457v-33.21
		l39.54-17.299c3.803-1.663,6.261-5.421,6.261-9.572v-10.449h31.347c1.683,0,3.267-0.408,4.675-1.114l-0.002,0.011l41.796-20.898
		c3.54-1.77,5.776-5.387,5.776-9.346v-15.673h52.245c5.771,0,10.449-4.679,10.449-10.449v-52.245c0-5.77-4.678-10.449-10.449-10.449
		h-52.245v-15.673c0-3.958-2.236-7.576-5.776-9.346l-41.796-20.898l0.002,0.011c-1.409-0.707-2.993-1.114-4.675-1.114h-31.347
		V80.981c0-4.151-2.458-7.909-6.261-9.572l-41.796-18.286c-1.321-0.579-2.747-0.877-4.188-0.877H119.38
		C58.835,52.244,9.579,101.501,9.579,162.046v25.948c0,59.174,47.054,107.557,105.709,109.716v31.432H98.831
		c-12.531,0-22.727,10.195-22.727,22.727v29.518H10.449C4.678,381.387,0,386.066,0,391.836v57.469
		c0,5.77,4.678,10.449,10.449,10.449h491.102c5.771,0,10.449-4.679,10.449-10.449v-57.469
		C512,386.066,507.322,381.387,501.551,381.387z M427.538,159.346h41.796v31.347h-41.796V159.346z M385.742,118.784l20.898,10.449
		v91.574l-20.898,10.449V118.784z M343.946,112.325h20.898v125.388h-20.898V112.325z M337.277,381.387h-0.03
		C337.259,381.252,337.269,381.278,337.277,381.387z M30.477,187.994v-25.948c0-49.021,39.882-88.904,88.903-88.904h170.136
		l33.533,14.67v174.414l-33.533,14.67H119.38C70.358,276.897,30.477,237.015,30.477,187.994z M277.246,297.795v31.347H136.185
		v-31.347H277.246z M97.001,350.04H316.43v31.347H97.001C97.001,381.387,97.001,350.04,97.001,350.04z M76.184,381.387h-0.03
		C76.163,381.278,76.173,381.252,76.184,381.387z M491.102,438.856H20.898v-36.571h470.204V438.856z"/>
</g>
<g>
</g>
<g>
</g>
<g>
</g>
<g>
</g>
<g>
</g>
<g>
</g>
<g>
</g>
<g>
</g>
<g>
</g>
<g>
</g>
<g>
</g>
<g>
</g>
<g>
</g>
<g>
</g>
<g>
</g>
</svg>
